<svg xmlns="http://www.w3.org/2000/svg" viewBox="0 0 100 100" enable-background="new 0 0 100 100"><circle fill="#24396d" cx="50" cy="49.999" r="50"/><path fill="#1b3460" d="m47 40.632l-19.04 5.118 2.101-19.556-29.696 29.695c1.271 10.769 6.02 21.2 14.284 29.466 10.669 10.669 24.959 15.495 38.914 14.505l23.1-23.1-8.697-17.549-20.957-18.583"/><path fill="#ff5d24" d="m76.69 43.875v-.588h-.008c-.341-14.446-12.159-26.05-26.687-26.05-14.743 0-26.696 11.954-26.696 26.696v28.516 4.065l10.347-6.3 8.583 6.3 7.766-5.884 8.344 5.885 8.327-6.38 9.983 6.63.041-32.761c0-.023 0-.047 0-.07 0-.02 0-.038 0-.058"/><circle fill="#fff" cx="44.658" cy="40.632" r="7.01"/><path fill="#ff4317" d="m42.23 76.51l7.767-5.885 8.344 5.885 8.327-6.38 9.983 6.63.041-32.761c0-.023 0-.047 0-.07 0-.02 0-.038 0-.058v-.588h-.008c-.133-5.623-2-10.814-5.099-15.06l-48.28 48.29 10.347-6.3 8.582 6.3"/><circle fill="#ff4622" cx="48.46" cy="40.632" r="3.09"/><circle fill="#fff" cx="64.15" cy="40.632" r="7.01"/><circle fill="#ff4622" cx="67.957" cy="40.632" r="3.09"/></svg>